<svg xmlns="http://www.w3.org/2000/svg" viewBox="0 0 24 24">
  <path d="M20.4 13.9c-.9-.1-1.8-.3-2.6-.6-1.1-.4-2.3-.1-3.2.7l-.7.7c-1.8-1.2-3.4-2.7-4.6-4.6l.7-.7c.8-.8 1.1-2.1.7-3.2-.3-.8-.5-1.7-.6-2.6C9.9 2.1 8.6 1 7.1 1H3.8c-.8.1-1.5.5-2 1.1s-.7 1.4-.7 2.2c.3 3.2 1.5 6.4 3.2 9.1 1.6 2.5 3.8 4.7 6.3 6.3 2.7 1.8 5.9 2.9 9.1 3.2h.3c.8 0 1.6-.3 2.1-.9s.9-1.3.9-2.1v-3c0-1.5-1.1-2.8-2.6-3zm.6 3v3c0 .3-.1.5-.3.7s-.4.3-.8.3c-2.9-.3-5.7-1.3-8.2-2.9-2.3-1.4-4.2-3.4-5.7-5.7C4.4 9.8 3.4 7 3.1 4.1c0-.3.1-.5.2-.7.2-.2.5-.4.8-.4h3c.5 0 .9.4 1 .9.1 1 .4 2.1.8 3 .1.4 0 .8-.2 1.1L7.4 9.2c-.3.3-.4.8-.2 1.2 1.5 2.7 3.7 4.9 6.4 6.4.4.2.9.2 1.2-.2l1.3-1.3c.3-.3.7-.4 1.1-.2 1 .4 2 .6 3 .8.4.1.8.5.8 1z"/>
</svg>
